<?xml version="1.0" encoding="iso-8859-1"?>
<!-- Generator: Adobe Illustrator 19.0.0, SVG Export Plug-In . SVG Version: 6.00 Build 0)  -->
<svg version="1.1" id="Layer_1" xmlns="http://www.w3.org/2000/svg" xmlns:xlink="http://www.w3.org/1999/xlink" x="0px" y="0px"
	 viewBox="0 0 216.442 216.442" style="enable-background:new 0 0 216.442 216.442;" xml:space="preserve">
<g>
	<g>
		<g>
			<path d="M205.217,48.172c-12.453-16.767-32.217-27.6-50.355-27.6c-18.237,0-35.286,8.221-46.642,22.244
				C96.872,28.793,79.822,20.572,61.581,20.572c-18.139,0-37.903,10.833-50.355,27.598C0.939,62.017-2.426,77.254,1.744,91.075
				c9.604,31.812,100.197,100.083,104.049,102.973l2.427,1.821l2.427-1.821c3.851-2.89,94.449-71.161,104.049-102.973
				C218.869,77.256,215.503,62.019,205.217,48.172z M206.96,88.74c-8.025,26.596-84.099,85.798-98.741,97.001
				C93.577,174.537,17.507,115.336,9.478,88.74c-3.413-11.31-0.489-24.008,8.235-35.75c10.811-14.558,28.441-24.337,43.869-24.337
				c17.432,0,33.61,8.678,43.273,23.217l3.366,5.06l3.366-5.06c9.667-14.538,25.844-23.217,43.276-23.217
				c15.428,0,33.057,9.781,43.868,24.337C207.45,64.732,210.374,77.429,206.96,88.74z"/>
			<path d="M125.509,72.866c-6.542,0-12.709,2.559-17.29,7.021c-4.581-4.463-10.748-7.021-17.29-7.021
				c-7.497,0-15.625,4.417-20.703,11.255c-4.305,5.794-5.694,12.244-3.91,18.158c3.654,12.115,33.527,35.006,39.477,39.473
				l2.427,1.819l2.427-1.819c5.95-4.467,35.823-27.358,39.481-39.473c1.783-5.913,0.395-12.362-3.91-18.156
				C141.138,77.285,133.01,72.866,125.509,72.866z M142.393,99.945c-2.107,6.972-21.133,23.465-34.174,33.499
				c-13.04-10.032-32.063-26.521-34.17-33.497c-1.385-4.597,1.073-8.87,2.663-11.008c3.551-4.78,9.265-7.992,14.217-7.992
				c5.611,0,10.815,2.794,13.924,7.473l3.366,5.06l3.366-5.06c3.109-4.68,8.314-7.473,13.924-7.473
				c4.952,0,10.669,3.214,14.22,7.994C141.32,91.08,143.778,95.353,142.393,99.945z"/>
		</g>
	</g>
</g>
<g>
</g>
<g>
</g>
<g>
</g>
<g>
</g>
<g>
</g>
<g>
</g>
<g>
</g>
<g>
</g>
<g>
</g>
<g>
</g>
<g>
</g>
<g>
</g>
<g>
</g>
<g>
</g>
<g>
</g>
</svg>
